# xmcd CD database file
#
# Track frame offsets:
#	183
#	12718
#	26263
#	36430
#	43133
#	52643
#	63983
#	72320
#	77858
#	86885
#	96303
#	108220
#	114983
#	137745
#	150863
#	162838
#	173183
#	185583
#	198240
#	206220
#	215933
#	232260
#	241820
#	254833
#	270083
#	279233
#	290623
#	306350
#	320875
#
# Disc length: 4473 seconds
#
# Revision: 0
# Processed by: cddbd v1.5.2PL0 Copyright (c) Steve Scherf et al.
# Submitted via: CDex 1.79
#
DISCID=af11771d
DTITLE=Keith Jarrett - Handel: Suites for Keyboard
DYEAR=1985
DGENRE=Jazz
TTITLE0=Suite for keyboard in G minor, HWV 452: Allemande                                                                                    
TTITLE1=Suite for keyboard in G minor, HWV 452: Courante                                                                                     
TTITLE2=Suite for keyboard in G minor, HWV 452: Sarabande                                                                                    
TTITLE3=Suite for keyboard in G minor, HWV 452: Gigue                                                                                        
TTITLE4=Suite for keyboard in D minor, HWV 447: Allemande                                                                                    
TTITLE5=Suite for keyboard in D minor, HWV 447: Courante                                                                                     
TTITLE6=Suite for keyboard in D minor, HWV 447: Sarabande                                                                                    
TTITLE7=Suite for keyboard in D minor, HWV 447: Gigue                                                                                        
TTITLE8=Suite for keyboard (Suite de piece), Vol.2, No.7 in B flat, HWV 440: Allemande                                                       
TTITLE9=Suite for keyboard (Suite de piece), Vol.2, No.7 in B flat, HWV 440: Courante                                                        
TTITLE10=Suite for keyboard (Suite de piece), Vol.2, No.7 in B flat, HWV 440: Sarabande                                                       
TTITLE11=Suite for keyboard (Suite de piece), Vol.2, No.7 in B flat, HWV 440: Gigue                                                           
TTITLE12=Suite for keyboard (Suite de piece), Vol.1, No.8 in F Minor, HWV 433
TTITLE13=Suite for keyboard (Suite de piece), Vol.1, No.8 in F Minor, HWV 433
TTITLE14=Suite for keyboard (Suite de piece), Vol.1, No.8 in F Minor, HWV 433
TTITLE15=Suite for keyboard (Suite de piece), Vol.1, No.8 in F Minor, HWV 433
TTITLE16=Suite for keyboard (Suite de piece), Vol.1, No.2 in F major, HWV 427
TTITLE17=Suite for keyboard (Suite de piece), Vol.1, No.2 in F major, HWV 427
TTITLE18=Suite for keyboard (Suite de piece), Vol.1, No.2 in F major, HWV 427
TTITLE19=Suite for keyboard (Suite de piece), Vol.1, No.2 in F major, HWV 427
TTITLE20=Suite for keyboard (Suite de piece), Vol.1, No.4 in E Minor, HWV 429
TTITLE21=Suite for keyboard (Suite de piece), Vol.1, No.4 in E Minor, HWV 429
TTITLE22=Suite for keyboard (Suite de piece), Vol.1, No.4 in E Minor, HWV 429
TTITLE23=Suite for keyboard (Suite de piece), Vol.1, No.4 in E Minor, HWV 429
TTITLE24=Suite for keyboard (Suite de piece), Vol.1, No.4 in E Minor, HWV 429
TTITLE25=Suite for keyboard (Suite de piece), Vol.1, No.1 in A major, HWV 426: Prelude                                                        
TTITLE26=Suite for keyboard (Suite de piece), Vol.1, No.1 in A major, HWV 426: Allemande                                                      
TTITLE27=Suite for keyboard (Suite de piece), Vol.1, No.1 in A major, HWV 426: Courante                                                       
TTITLE28=Suite for keyboard (Suite de piece), Vol.1, No.1 in A major, HWV 426: Gigue                                                          
EXTD=YEAR: 1985
EXTT0=
EXTT1=
EXTT2=
EXTT3=
EXTT4=
EXTT5=
EXTT6=
EXTT7=
EXTT8=
EXTT9=
EXTT10=
EXTT11=
EXTT12=
EXTT13=
EXTT14=
EXTT15=
EXTT16=
EXTT17=
EXTT18=
EXTT19=
EXTT20=
EXTT21=
EXTT22=
EXTT23=
EXTT24=
EXTT25=
EXTT26=
EXTT27=
EXTT28=
PLAYORDER=
